<?xml version='1.0' encoding='utf-8'?>
<svg xmlns="http://www.w3.org/2000/svg" contentStyleType="text/css" data-diagram-type="DESCRIPTION" height="1871px" preserveAspectRatio="none" style="width:1689px;height:1871px;background:#FFFFFF;" version="1.1" viewBox="0 0 1689 1871" width="1689px" zoomAndPan="magnify">
  <defs />
  <g transform="matrix(2.2, 0, 0, 0.78, 0, 0)">
    <g class="cluster" data-qualified-name="System" data-source-line="27" id="ent0013">
      <rect fill="#FAFAFA" height="2262" rx="4" ry="4" style="stroke:#181818;stroke-width:1.8;;stroke-dasharray:8,4;stroke:#888888" width="371.47" x="306.5" y="7.3942" />
      <text fill="#000000" font-family="sans-serif" font-size="13" font-weight="700" lengthAdjust="spacing" textLength="160.2837" x="412.0931" y="19.6047">EmiyaOJ-Cloud 在线判题系统</text>
    </g>
    <g class="cluster" data-qualified-name="System....." data-source-line="30" id="ent0014">
      <rect fill="#FAFAFA" height="263" rx="4" ry="4" style="stroke:#181818;stroke-width:1.8;" width="121.52" x="511.8" y="936.3942" />
      <text fill="#000000" font-family="sans-serif" font-size="13" font-weight="700" lengthAdjust="spacing" textLength="43.9997" x="550.5602" y="948.6047">认证模块</text>
    </g>
    <g class="cluster" data-qualified-name="System....." data-source-line="37" id="ent0019">
      <rect fill="#FAFAFA" height="393" rx="4" ry="4" style="stroke:#181818;stroke-width:1.8;" width="132.64" x="506.24" y="1223.3942" />
      <text fill="#000000" font-family="sans-serif" font-size="13" font-weight="700" lengthAdjust="spacing" textLength="43.9997" x="550.5602" y="1235.6047">题目模块</text>
    </g>
    <g class="cluster" data-qualified-name="System....." data-source-line="48" id="ent0026">
      <rect fill="#FAFAFA" height="199" rx="4" ry="4" style="stroke:#181818;stroke-width:1.8;" width="306.12" x="339.85" y="54.3942" />
      <text fill="#000000" font-family="sans-serif" font-size="13" font-weight="700" lengthAdjust="spacing" textLength="43.9997" x="470.9102" y="66.6047">判题模块</text>
    </g>
    <g class="cluster" data-qualified-name="System....." data-source-line="55" id="ent0031">
      <rect fill="#FAFAFA" height="331" rx="4" ry="4" style="stroke:#181818;stroke-width:1.8;" width="132.65" x="338.5" y="277.3942" />
      <text fill="#000000" font-family="sans-serif" font-size="13" font-weight="700" lengthAdjust="spacing" textLength="43.9997" x="382.8252" y="289.6047">博客模块</text>
    </g>
    <g class="cluster" data-qualified-name="System....." data-source-line="63" id="ent0037">
      <rect fill="#FAFAFA" height="264" rx="4" ry="4" style="stroke:#181818;stroke-width:1.8;" width="132.65" x="338.5" y="632.3942" />
      <text fill="#000000" font-family="sans-serif" font-size="13" font-weight="700" lengthAdjust="spacing" textLength="43.9997" x="382.8252" y="644.6047">竞赛模块</text>
    </g>
    <g class="cluster" data-qualified-name="System.AI ...." data-source-line="72" id="ent0042">
      <rect fill="#FAFAFA" height="135" rx="4" ry="4" style="stroke:#181818;stroke-width:1.8;" width="129.95" x="507.58" y="2102.3942" />
      <text fill="#000000" font-family="sans-serif" font-size="13" font-weight="700" lengthAdjust="spacing" textLength="60.4352" x="542.3374" y="2114.6047">AI 助手模块</text>
    </g>
    <g class="cluster" data-qualified-name="System....." data-source-line="77" id="ent0045">
      <rect fill="#FAFAFA" height="135" rx="4" ry="4" style="stroke:#181818;stroke-width:1.8;" width="129.95" x="507.58" y="1943.3942" />
      <text fill="#000000" font-family="sans-serif" font-size="13" font-weight="700" lengthAdjust="spacing" textLength="43.9997" x="550.5552" y="1955.6047">审核模块</text>
    </g>
    <g class="cluster" data-qualified-name="System....." data-source-line="82" id="ent0048">
      <rect fill="#FAFAFA" height="263" rx="4" ry="4" style="stroke:#181818;stroke-width:1.8;" width="129.95" x="507.58" y="1656.3942" />
      <text fill="#000000" font-family="sans-serif" font-size="13" font-weight="700" lengthAdjust="spacing" textLength="43.9997" x="550.5552" y="1668.6047">管理模块</text>
    </g>
    <g class="entity" data-qualified-name="System......UC_Register" data-source-line="31" id="ent0015">
      <ellipse cx="572.5625" cy="979.3985" fill="#F1F1F1" rx="34.1125" ry="12.0543" style="stroke:#181818;stroke-width:0.5;" />
      <text fill="#000000" font-family="sans-serif" font-size="13" lengthAdjust="spacing" textLength="43.9997" x="550.5626" y="982.3009">用户注册</text>
    </g>
    <g class="entity" data-qualified-name="System......UC_Login" data-source-line="32" id="ent0016">
      <ellipse cx="572.5625" cy="1043.3985" fill="#F1F1F1" rx="34.1125" ry="12.0543" style="stroke:#181818;stroke-width:0.5;" />
      <text fill="#000000" font-family="sans-serif" font-size="13" lengthAdjust="spacing" textLength="43.9997" x="550.5626" y="1046.3009">用户登录</text>
    </g>
    <g class="entity" data-qualified-name="System......UC_Logout" data-source-line="33" id="ent0017">
      <ellipse cx="572.5625" cy="1171.3985" fill="#F1F1F1" rx="34.1125" ry="12.0543" style="stroke:#181818;stroke-width:0.5;" />
      <text fill="#000000" font-family="sans-serif" font-size="13" lengthAdjust="spacing" textLength="43.9997" x="550.5626" y="1174.3009">用户登出</text>
    </g>
    <g class="entity" data-qualified-name="System......UC_Token" data-source-line="34" id="ent0018">
      <ellipse cx="572.5582" cy="1107.3985" fill="#F1F1F1" rx="44.7582" ry="12.0543" style="stroke:#181818;stroke-width:0.5;" />
      <text fill="#000000" font-family="sans-serif" font-size="13" lengthAdjust="spacing" textLength="59.055" x="543.0307" y="1110.3009">Token 验证</text>
    </g>
    <g class="entity" data-qualified-name="System......UC_BrowseProblem" data-source-line="38" id="ent0020">
      <ellipse cx="572.5554" cy="1266.3893" fill="#F1F1F1" rx="48.9754" ry="12.1951" style="stroke:#181818;stroke-width:0.5;" />
      <text fill="#000000" font-family="sans-serif" font-size="13" lengthAdjust="spacing" textLength="65.9995" x="539.5556" y="1269.2917">浏览题目列表</text>
    </g>
    <g class="entity" data-qualified-name="System......UC_ViewProblem" data-source-line="39" id="ent0021">
      <ellipse cx="572.5554" cy="1330.3893" fill="#F1F1F1" rx="48.9754" ry="12.1951" style="stroke:#181818;stroke-width:0.5;" />
      <text fill="#000000" font-family="sans-serif" font-size="13" lengthAdjust="spacing" textLength="65.9995" x="539.5556" y="1333.2917">查看题目详情</text>
    </g>
    <g class="entity" data-qualified-name="System......UC_ManageProblem" data-source-line="40" id="ent0022">
      <ellipse cx="572.563" cy="1523.3988" fill="#F1F1F1" rx="50.323" ry="12.4646" style="stroke:#181818;stroke-width:0.5;" />
      <text fill="#000000" font-family="sans-serif" font-size="13" lengthAdjust="spacing" textLength="69.7056" x="537.7102" y="1526.3012">创建/编辑题目</text>
    </g>
    <g class="entity" data-qualified-name="System......UC_ManageTestCase" data-source-line="41" id="ent0023">
      <ellipse cx="572.5554" cy="1588.3893" fill="#F1F1F1" rx="48.9754" ry="12.1951" style="stroke:#181818;stroke-width:0.5;" />
      <text fill="#000000" font-family="sans-serif" font-size="13" lengthAdjust="spacing" textLength="65.9995" x="539.5556" y="1591.2917">管理测试用例</text>
    </g>
    <g class="entity" data-qualified-name="System......UC_ManageLanguage" data-source-line="42" id="ent0024">
      <ellipse cx="572.5554" cy="1394.3893" fill="#F1F1F1" rx="48.9754" ry="12.1951" style="stroke:#181818;stroke-width:0.5;" />
      <text fill="#000000" font-family="sans-serif" font-size="13" lengthAdjust="spacing" textLength="65.9995" x="539.5556" y="1397.2917">管理编程语言</text>
    </g>
    <g class="entity" data-qualified-name="System......UC_ManageTag" data-source-line="43" id="ent0025">
      <ellipse cx="572.5554" cy="1458.3893" fill="#F1F1F1" rx="48.9754" ry="12.1951" style="stroke:#181818;stroke-width:0.5;" />
      <text fill="#000000" font-family="sans-serif" font-size="13" lengthAdjust="spacing" textLength="65.9995" x="539.5556" y="1461.2917">管理题目标签</text>
    </g>
    <g class="entity" data-qualified-name="System......UC_SubmitCode" data-source-line="49" id="ent0027">
      <ellipse cx="404.8225" cy="97.3985" fill="#F1F1F1" rx="34.1125" ry="12.0543" style="stroke:#181818;stroke-width:0.5;" />
      <text fill="#000000" font-family="sans-serif" font-size="13" lengthAdjust="spacing" textLength="43.9997" x="382.8226" y="100.3009">提交代码</text>
    </g>
    <g class="entity" data-qualified-name="System......UC_ViewSubmission" data-source-line="50" id="ent0028">
      <ellipse cx="404.8154" cy="225.3893" fill="#F1F1F1" rx="48.9754" ry="12.1951" style="stroke:#181818;stroke-width:0.5;" />
      <text fill="#000000" font-family="sans-serif" font-size="13" lengthAdjust="spacing" textLength="65.9995" x="371.8156" y="228.2917">查看提交记录</text>
    </g>
    <g class="entity" data-qualified-name="System......UC_ViewResult" data-source-line="51" id="ent0029">
      <ellipse cx="404.8154" cy="161.3893" fill="#F1F1F1" rx="48.9754" ry="12.1951" style="stroke:#181818;stroke-width:0.5;" />
      <text fill="#000000" font-family="sans-serif" font-size="13" lengthAdjust="spacing" textLength="65.9995" x="371.8156" y="164.2917">查看判题结果</text>
    </g>
    <g class="entity" data-qualified-name="System......UC_ExecuteJudge" data-source-line="52" id="ent0030">
      <ellipse cx="572.5625" cy="161.3967" fill="#F1F1F1" rx="57.4125" ry="13.8825" style="stroke:#181818;stroke-width:0.5;" />
      <text fill="#000000" font-family="sans-serif" font-size="13" lengthAdjust="spacing" textLength="87.9994" x="528.5628" y="164.2991">执行代码编译运行</text>
    </g>
    <g class="entity" data-qualified-name="System......UC_BrowseBlog" data-source-line="56" id="ent0032">
      <ellipse cx="404.8225" cy="320.3985" fill="#F1F1F1" rx="34.1125" ry="12.0543" style="stroke:#181818;stroke-width:0.5;" />
      <text fill="#000000" font-family="sans-serif" font-size="13" lengthAdjust="spacing" textLength="43.9997" x="382.8226" y="323.3009">浏览博客</text>
    </g>
    <g class="entity" data-qualified-name="System......UC_PublishBlog" data-source-line="57" id="ent0033">
      <ellipse cx="404.823" cy="385.3988" fill="#F1F1F1" rx="50.323" ry="12.4646" style="stroke:#181818;stroke-width:0.5;" />
      <text fill="#000000" font-family="sans-serif" font-size="13" lengthAdjust="spacing" textLength="69.7056" x="369.9702" y="388.3012">发布/编辑博客</text>
    </g>
    <g class="entity" data-qualified-name="System......UC_Comment" data-source-line="58" id="ent0034">
      <ellipse cx="404.8225" cy="450.3985" fill="#F1F1F1" rx="34.1125" ry="12.0543" style="stroke:#181818;stroke-width:0.5;" />
      <text fill="#000000" font-family="sans-serif" font-size="13" lengthAdjust="spacing" textLength="43.9997" x="382.8226" y="453.3009">发表评论</text>
    </g>
    <g class="entity" data-qualified-name="System......UC_StarBlog" data-source-line="59" id="ent0035">
      <ellipse cx="404.823" cy="515.3988" fill="#F1F1F1" rx="50.323" ry="12.4646" style="stroke:#181818;stroke-width:0.5;" />
      <text fill="#000000" font-family="sans-serif" font-size="13" lengthAdjust="spacing" textLength="69.7056" x="369.9702" y="518.3012">收藏/点赞博客</text>
    </g>
    <g class="entity" data-qualified-name="System......UC_ManageBlogTag" data-source-line="60" id="ent0036">
      <ellipse cx="404.8154" cy="580.3893" fill="#F1F1F1" rx="48.9754" ry="12.1951" style="stroke:#181818;stroke-width:0.5;" />
      <text fill="#000000" font-family="sans-serif" font-size="13" lengthAdjust="spacing" textLength="65.9995" x="371.8156" y="583.2917">管理博客标签</text>
    </g>
    <g class="entity" data-qualified-name="System......UC_BrowseContest" data-source-line="64" id="ent0038">
      <ellipse cx="404.8225" cy="675.3985" fill="#F1F1F1" rx="34.1125" ry="12.0543" style="stroke:#181818;stroke-width:0.5;" />
      <text fill="#000000" font-family="sans-serif" font-size="13" lengthAdjust="spacing" textLength="43.9997" x="382.8226" y="678.3009">浏览竞赛</text>
    </g>
    <g class="entity" data-qualified-name="System......UC_RegisterContest" data-source-line="65" id="ent0039">
      <ellipse cx="404.8225" cy="739.3985" fill="#F1F1F1" rx="34.1125" ry="12.0543" style="stroke:#181818;stroke-width:0.5;" />
      <text fill="#000000" font-family="sans-serif" font-size="13" lengthAdjust="spacing" textLength="43.9997" x="382.8226" y="742.3009">报名竞赛</text>
    </g>
    <g class="entity" data-qualified-name="System......UC_ManageContest" data-source-line="66" id="ent0040">
      <ellipse cx="404.823" cy="868.3988" fill="#F1F1F1" rx="50.323" ry="12.4646" style="stroke:#181818;stroke-width:0.5;" />
      <text fill="#000000" font-family="sans-serif" font-size="13" lengthAdjust="spacing" textLength="69.7056" x="369.9702" y="871.3012">创建/管理竞赛</text>
    </g>
    <g class="entity" data-qualified-name="System......UC_ViewRanking" data-source-line="67" id="ent0041">
      <ellipse cx="404.8206" cy="803.3985" fill="#F1F1F1" rx="41.8906" ry="12.0543" style="stroke:#181818;stroke-width:0.5;" />
      <text fill="#000000" font-family="sans-serif" font-size="13" lengthAdjust="spacing" textLength="54.9996" x="377.3208" y="806.3009">查看排行榜</text>
    </g>
    <g class="entity" data-qualified-name="System.AI .....UC_AIChat" data-source-line="73" id="ent0043">
      <ellipse cx="572.5623" cy="2209.3985" fill="#F1F1F1" rx="46.6723" ry="12.0543" style="stroke:#181818;stroke-width:0.5;" />
      <text fill="#000000" font-family="sans-serif" font-size="13" lengthAdjust="spacing" textLength="61.7619" x="541.6813" y="2212.3009">发送 AI 消息</text>
    </g>
    <g class="entity" data-qualified-name="System.AI .....UC_AISuggest" data-source-line="74" id="ent0044">
      <ellipse cx="572.5554" cy="2145.3893" fill="#F1F1F1" rx="48.9754" ry="12.1951" style="stroke:#181818;stroke-width:0.5;" />
      <text fill="#000000" font-family="sans-serif" font-size="13" lengthAdjust="spacing" textLength="65.9995" x="539.5556" y="2148.2917">获取代码建议</text>
    </g>
    <g class="entity" data-qualified-name="System......UC_AutoMod" data-source-line="78" id="ent0046">
      <ellipse cx="572.5554" cy="1986.3893" fill="#F1F1F1" rx="48.9754" ry="12.1951" style="stroke:#181818;stroke-width:0.5;" />
      <text fill="#000000" font-family="sans-serif" font-size="13" lengthAdjust="spacing" textLength="65.9995" x="539.5556" y="1989.2917">自动文本审核</text>
    </g>
    <g class="entity" data-qualified-name="System......UC_ManualMod" data-source-line="79" id="ent0047">
      <ellipse cx="572.5554" cy="2050.3893" fill="#F1F1F1" rx="48.9754" ry="12.1951" style="stroke:#181818;stroke-width:0.5;" />
      <text fill="#000000" font-family="sans-serif" font-size="13" lengthAdjust="spacing" textLength="65.9995" x="539.5556" y="2053.2917">人工审核复核</text>
    </g>
    <g class="entity" data-qualified-name="System......UC_ManageUser" data-source-line="83" id="ent0049">
      <ellipse cx="572.5625" cy="1763.3985" fill="#F1F1F1" rx="34.1125" ry="12.0543" style="stroke:#181818;stroke-width:0.5;" />
      <text fill="#000000" font-family="sans-serif" font-size="13" lengthAdjust="spacing" textLength="43.9997" x="550.5626" y="1766.3009">用户管理</text>
    </g>
    <g class="entity" data-qualified-name="System......UC_ManageRole" data-source-line="84" id="ent0050">
      <ellipse cx="572.5625" cy="1827.3985" fill="#F1F1F1" rx="34.1125" ry="12.0543" style="stroke:#181818;stroke-width:0.5;" />
      <text fill="#000000" font-family="sans-serif" font-size="13" lengthAdjust="spacing" textLength="43.9997" x="550.5626" y="1830.3009">角色管理</text>
    </g>
    <g class="entity" data-qualified-name="System......UC_ManagePerm" data-source-line="85" id="ent0051">
      <ellipse cx="572.5625" cy="1891.3985" fill="#F1F1F1" rx="34.1125" ry="12.0543" style="stroke:#181818;stroke-width:0.5;" />
      <text fill="#000000" font-family="sans-serif" font-size="13" lengthAdjust="spacing" textLength="43.9997" x="550.5626" y="1894.3009">权限管理</text>
    </g>
    <g class="entity" data-qualified-name="System......UC_ManageSubmission" data-source-line="86" id="ent0052">
      <ellipse cx="572.5554" cy="1699.3893" fill="#F1F1F1" rx="48.9754" ry="12.1951" style="stroke:#181818;stroke-width:0.5;" />
      <text fill="#000000" font-family="sans-serif" font-size="13" lengthAdjust="spacing" textLength="65.9995" x="539.5556" y="1702.2917">提交记录管理</text>
    </g>
    <g class="entity" data-qualified-name="Visitor" data-source-line="12" id="ent0002">
      <ellipse cx="33" cy="36.3989" fill="#F1F1F1" rx="16" ry="16" style="stroke:#181818;stroke-width:0.5;" />
      <path d="M33,56.3989 C37,56.3989 40,56.3989 44,52.3989 C52,52.3989 60,60.3989 60,68.3989 L60,72.3989 C60,76.3989 56,80.3989 52,80.3989 L14,80.3989 C10,80.3989 6,76.3989 6,72.3989 L6,68.3989 C6,60.3989 14,52.3989 22,52.3989 C26,56.3989 29,56.3989 33,56.3989" fill="#F1F1F1" style="stroke:#181818;stroke-width:0.5;" />
      <text fill="#000000" font-family="sans-serif" font-size="13" lengthAdjust="spacing" textLength="21.9998" x="22.0001" y="91.1094">访客</text>
      <text fill="#000000" font-family="sans-serif" font-size="13" font-style="italic" lengthAdjust="spacing" textLength="35.4598" x="15.2701" y="17.3047">«人员»</text>
    </g>
    <g class="entity" data-qualified-name="User" data-source-line="13" id="ent0003">
      <ellipse cx="148" cy="651.3989" fill="#F1F1F1" rx="16" ry="16" style="stroke:#181818;stroke-width:0.5;" />
      <path d="M148,671.3989 C152,671.3989 155,671.3989 159,667.3989 C167,667.3989 175,675.3989 175,683.3989 L175,687.3989 C175,691.3989 171,695.3989 167,695.3989 L129,695.3989 C125,695.3989 121,691.3989 121,687.3989 L121,683.3989 C121,675.3989 129,667.3989 137,667.3989 C141,671.3989 144,671.3989 148,671.3989" fill="#F1F1F1" style="stroke:#181818;stroke-width:0.5;" />
      <text fill="#000000" font-family="sans-serif" font-size="13" lengthAdjust="spacing" textLength="43.9997" x="126.0002" y="706.1094">注册用户</text>
      <text fill="#000000" font-family="sans-serif" font-size="13" font-style="italic" lengthAdjust="spacing" textLength="35.4598" x="130.2701" y="632.3047">«人员»</text>
    </g>
    <g class="entity" data-qualified-name="Admin" data-source-line="14" id="ent0004">
      <ellipse cx="263" cy="1539.3989" fill="#F1F1F1" rx="16" ry="16" style="stroke:#181818;stroke-width:0.5;" />
      <path d="M263,1559.3989 C267,1559.3989 270,1559.3989 274,1555.3989 C282,1555.3989 290,1563.3989 290,1571.3989 L290,1575.3989 C290,1579.3989 286,1583.3989 282,1583.3989 L244,1583.3989 C240,1583.3989 236,1579.3989 236,1575.3989 L236,1571.3989 C236,1563.3989 244,1555.3989 252,1555.3989 C256,1559.3989 259,1559.3989 263,1559.3989" fill="#F1F1F1" style="stroke:#181818;stroke-width:0.5;" />
      <text fill="#000000" font-family="sans-serif" font-size="13" lengthAdjust="spacing" textLength="32.9998" x="246.5001" y="1594.1094">管理员</text>
      <text fill="#000000" font-family="sans-serif" font-size="13" font-style="italic" lengthAdjust="spacing" textLength="35.4598" x="245.2701" y="1520.3047">«人员»</text>
    </g>
    <g class="entity" data-qualified-name="Moderator" data-source-line="15" id="ent0005">
      <ellipse cx="404.82" cy="2314.3989" fill="#F1F1F1" rx="16" ry="16" style="stroke:#181818;stroke-width:0.5;" />
      <path d="M404.82,2334.3989 C408.82,2334.3989 411.82,2334.3989 415.82,2330.3989 C423.82,2330.3989 431.82,2338.3989 431.82,2346.3989 L431.82,2350.3989 C431.82,2354.3989 427.82,2358.3989 423.82,2358.3989 L385.82,2358.3989 C381.82,2358.3989 377.82,2354.3989 377.82,2350.3989 L377.82,2346.3989 C377.82,2338.3989 385.82,2330.3989 393.82,2330.3989 C397.82,2334.3989 400.82,2334.3989 404.82,2334.3989" fill="#F1F1F1" style="stroke:#181818;stroke-width:0.5;" />
      <text fill="#000000" font-family="sans-serif" font-size="13" lengthAdjust="spacing" textLength="43.9997" x="382.8202" y="2369.1094">审核人员</text>
      <text fill="#000000" font-family="sans-serif" font-size="13" font-style="italic" lengthAdjust="spacing" textLength="35.4598" x="387.0901" y="2295.3047">«人员»</text>
    </g>
    <g class="entity" data-qualified-name="GoJudge" data-source-line="16" id="ent0006">
      <ellipse cx="572.5598" cy="2314.9989" fill="#F1F1F1" rx="16" ry="16" style="stroke:#181818;stroke-width:0.5;" />
      <path d="M572.5598,2334.9989 C576.5598,2334.9989 579.5598,2334.9989 583.5598,2330.9989 C591.5598,2330.9989 599.5598,2338.9989 599.5598,2346.9989 L599.5598,2350.9989 C599.5598,2354.9989 595.5598,2358.9989 591.5598,2358.9989 L553.5598,2358.9989 C549.5598,2358.9989 545.5598,2354.9989 545.5598,2350.9989 L545.5598,2346.9989 C545.5598,2338.9989 553.5598,2330.9989 561.5598,2330.9989 C565.5598,2334.9989 568.5598,2334.9989 572.5598,2334.9989" fill="#F1F1F1" style="stroke:#181818;stroke-width:0.5;" />
      <text fill="#000000" font-family="sans-serif" font-size="13" lengthAdjust="spacing" textLength="50.1714" x="547.4741" y="2369.7094">Go-Judge</text>
      <text fill="#000000" font-family="sans-serif" font-size="13" lengthAdjust="spacing" textLength="43.9997" x="547.4741" y="2382.5141">判题沙箱</text>
      <text fill="#000000" font-family="sans-serif" font-size="13" font-style="italic" lengthAdjust="spacing" textLength="57.4597" x="543.83" y="2295.9047">«外部系统»</text>
    </g>
    <g class="entity" data-qualified-name="AliyunMod" data-source-line="17" id="ent0007">
      <ellipse cx="723.6998" cy="2140.9989" fill="#F1F1F1" rx="16" ry="16" style="stroke:#181818;stroke-width:0.5;" />
      <path d="M723.6998,2160.9989 C727.6998,2160.9989 730.6998,2160.9989 734.6998,2156.9989 C742.6998,2156.9989 750.6998,2164.9989 750.6998,2172.9989 L750.6998,2176.9989 C750.6998,2180.9989 746.6998,2184.9989 742.6998,2184.9989 L704.6998,2184.9989 C700.6998,2184.9989 696.6998,2180.9989 696.6998,2176.9989 L696.6998,2172.9989 C696.6998,2164.9989 704.6998,2156.9989 712.6998,2156.9989 C716.6998,2160.9989 719.6998,2160.9989 723.6998,2160.9989" fill="#F1F1F1" style="stroke:#181818;stroke-width:0.5;" />
      <text fill="#000000" font-family="sans-serif" font-size="13" lengthAdjust="spacing" textLength="32.9998" x="701.7" y="2195.7094">阿里云</text>
      <text fill="#000000" font-family="sans-serif" font-size="13" lengthAdjust="spacing" textLength="43.9997" x="701.7" y="2208.5141">内容审核</text>
      <text fill="#000000" font-family="sans-serif" font-size="13" font-style="italic" lengthAdjust="spacing" textLength="57.4597" x="694.97" y="2121.9047">«外部系统»</text>
    </g>
    <g class="link" data-entity-1="ent0003" data-entity-2="ent0002" data-link-type="extension" data-source-line="100" id="lnk59">
      <path d="M133.43,621.6442 C133.43,487.2542 133.43,89.5242 133.43,89.5242 C133.43,89.5242 108.69,89.5242 78.98,89.5242" fill="none" id="User-to-Visitor" style="stroke:#333333;stroke-width:2.5;" />
      <polygon fill="none" points="60.98,89.5242,78.98,95.5242,78.98,83.5242,60.98,89.5242" style="stroke:#333333;stroke-width:2.5;" />
    </g>
    <g class="link" data-entity-1="ent0004" data-entity-2="ent0003" data-link-type="extension" data-source-line="101" id="lnk60">
      <path d="M251.43,1509.8042 C251.43,1335.5042 251.43,698.0742 251.43,698.0742 C251.43,698.0742 224.62,698.0742 193.99,698.0742" fill="none" id="Admin-to-User" style="stroke:#333333;stroke-width:2.5;" />
      <polygon fill="none" points="175.99,698.0742,193.99,704.0742,193.99,692.0742,175.99,698.0742" style="stroke:#333333;stroke-width:2.5;" />
    </g>
    <g class="link" data-entity-1="ent0002" data-entity-2="ent0015" data-link-type="dependency" data-source-line="92" id="lnk53">
      <path d="M42.43,93.9542 C42.43,277.6242 42.43,979.3942 42.43,979.3942 C42.43,979.3942 414.71,979.3942 532.18,979.3942" fill="none" id="Visitor-to-UC_Register" style="stroke:#2196F3;stroke-width:2.5;" />
      <polygon fill="#2196F3" points="538.18,979.3942,529.18,975.3942,533.18,979.3942,529.18,983.3942,538.18,979.3942" style="stroke:#2196F3;stroke-width:2.5;" />
    </g>
    <g class="link" data-entity-1="ent0002" data-entity-2="ent0016" data-link-type="dependency" data-source-line="93" id="lnk54">
      <path d="M33.43,94.0242 C33.43,285.6742 33.43,1043.3942 33.43,1043.3942 C33.43,1043.3942 413.02,1043.3942 532.01,1043.3942" fill="none" id="Visitor-to-UC_Login" style="stroke:#2196F3;stroke-width:2.5;" />
      <polygon fill="#2196F3" points="538.01,1043.3942,529.01,1039.3942,533.01,1043.3942,529.01,1047.3942,538.01,1043.3942" style="stroke:#2196F3;stroke-width:2.5;" />
    </g>
    <g class="link" data-entity-1="ent0002" data-entity-2="ent0020" data-link-type="dependency" data-source-line="94" id="lnk55">
      <path d="M24.43,94.0342 C24.43,311.3442 24.43,1266.3942 24.43,1266.3942 C24.43,1266.3942 382.89,1266.3942 517.43,1266.3942" fill="none" id="Visitor-to-UC_BrowseProblem" style="stroke:#2196F3;stroke-width:2.5;" />
      <polygon fill="#2196F3" points="523.43,1266.3942,514.43,1262.3942,518.43,1266.3942,514.43,1270.3942,523.43,1266.3942" style="stroke:#2196F3;stroke-width:2.5;" />
    </g>
    <g class="link" data-entity-1="ent0002" data-entity-2="ent0021" data-link-type="dependency" data-source-line="95" id="lnk56">
      <path d="M15.43,94.0842 C15.43,318.4242 15.43,1330.3942 15.43,1330.3942 C15.43,1330.3942 380.77,1330.3942 517.12,1330.3942" fill="none" id="Visitor-to-UC_ViewProblem" style="stroke:#2196F3;stroke-width:2.5;" />
      <polygon fill="#2196F3" points="523.12,1330.3942,514.12,1326.3942,518.12,1330.3942,514.12,1334.3942,523.12,1330.3942" style="stroke:#2196F3;stroke-width:2.5;" />
    </g>
    <g class="link" data-entity-1="ent0002" data-entity-2="ent0032" data-link-type="dependency" data-source-line="96" id="lnk57">
      <path d="M51.43,94.0742 C51.43,170.4942 51.43,320.3942 51.43,320.3942 C51.43,320.3942 275.37,320.3942 364.29,320.3942" fill="none" id="Visitor-to-UC_BrowseBlog" style="stroke:#2196F3;stroke-width:2.5;" />
      <polygon fill="#2196F3" points="370.29,320.3942,361.29,316.3942,365.29,320.3942,361.29,324.3942,370.29,320.3942" style="stroke:#2196F3;stroke-width:2.5;" />
    </g>
    <g class="link" data-entity-1="ent0002" data-entity-2="ent0038" data-link-type="dependency" data-source-line="97" id="lnk58">
      <path d="M60.81,87.4342 C122.91,87.4342 267.43,87.4342 267.43,87.4342 C267.43,87.4342 267.43,675.3942 267.43,675.3942 C267.43,675.3942 323.81,675.3942 364.51,675.3942" fill="none" id="Visitor-to-UC_BrowseContest" style="stroke:#2196F3;stroke-width:2.5;" />
      <polygon fill="#2196F3" points="370.51,675.3942,361.51,671.3942,365.51,675.3942,361.51,679.3942,370.51,675.3942" style="stroke:#2196F3;stroke-width:2.5;" />
    </g>
    <g class="link" data-entity-1="ent0003" data-entity-2="ent0017" data-link-type="dependency" data-source-line="104" id="lnk61">
      <path d="M154.43,708.9742 C154.43,831.7142 154.43,1171.3942 154.43,1171.3942 C154.43,1171.3942 431.81,1171.3942 531.99,1171.3942" fill="none" id="User-to-UC_Logout" style="stroke:#4CAF50;stroke-width:2.5;" />
      <polygon fill="#4CAF50" points="537.99,1171.3942,528.99,1167.3942,532.99,1171.3942,528.99,1175.3942,537.99,1171.3942" style="stroke:#4CAF50;stroke-width:2.5;" />
    </g>
    <g class="link" data-entity-1="ent0003" data-entity-2="ent0027" data-link-type="dependency" data-source-line="105" id="lnk62">
      <path d="M139.43,621.6242 C139.43,489.1542 139.43,101.5742 139.43,101.5742 C139.43,101.5742 295.41,101.5742 366.28,101.5742" fill="none" id="User-to-UC_SubmitCode" style="stroke:#4CAF50;stroke-width:2.5;" />
      <polygon fill="#4CAF50" points="372.28,101.5742,363.28,97.5742,367.28,101.5742,363.28,105.5742,372.28,101.5742" style="stroke:#4CAF50;stroke-width:2.5;" />
    </g>
    <g class="link" data-entity-1="ent0003" data-entity-2="ent0028" data-link-type="dependency" data-source-line="106" id="lnk63">
      <path d="M151.43,621.6042 C151.43,510.3042 151.43,225.3942 151.43,225.3942 C151.43,225.3942 275.62,225.3942 349.36,225.3942" fill="none" id="User-to-UC_ViewSubmission" style="stroke:#4CAF50;stroke-width:2.5;" />
      <polygon fill="#4CAF50" points="355.36,225.3942,346.36,221.3942,350.36,225.3942,346.36,229.3942,355.36,225.3942" style="stroke:#4CAF50;stroke-width:2.5;" />
    </g>
    <g class="link" data-entity-1="ent0003" data-entity-2="ent0029" data-link-type="dependency" data-source-line="107" id="lnk64">
      <path d="M145.43,621.9942 C145.43,499.7342 145.43,161.3942 145.43,161.3942 C145.43,161.3942 274.16,161.3942 349.42,161.3942" fill="none" id="User-to-UC_ViewResult" style="stroke:#4CAF50;stroke-width:2.5;" />
      <polygon fill="#4CAF50" points="355.42,161.3942,346.42,157.3942,350.42,161.3942,346.42,165.3942,355.42,161.3942" style="stroke:#4CAF50;stroke-width:2.5;" />
    </g>
    <g class="link" data-entity-1="ent0003" data-entity-2="ent0033" data-link-type="dependency" data-source-line="108" id="lnk65">
      <path d="M157.43,621.6442 C157.43,542.8942 157.43,385.3942 157.43,385.3942 C157.43,385.3942 275.78,385.3942 348.16,385.3942" fill="none" id="User-to-UC_PublishBlog" style="stroke:#4CAF50;stroke-width:2.5;" />
      <polygon fill="#4CAF50" points="354.16,385.3942,345.16,381.3942,349.16,385.3942,345.16,389.3942,354.16,385.3942" style="stroke:#4CAF50;stroke-width:2.5;" />
    </g>
    <g class="link" data-entity-1="ent0003" data-entity-2="ent0034" data-link-type="dependency" data-source-line="109" id="lnk66">
      <path d="M163.43,621.6342 C163.43,558.7642 163.43,450.3942 163.43,450.3942 C163.43,450.3942 297.49,450.3942 364.24,450.3942" fill="none" id="User-to-UC_Comment" style="stroke:#4CAF50;stroke-width:2.5;" />
      <polygon fill="#4CAF50" points="370.24,450.3942,361.24,446.3942,365.24,450.3942,361.24,454.3942,370.24,450.3942" style="stroke:#4CAF50;stroke-width:2.5;" />
    </g>
    <g class="link" data-entity-1="ent0003" data-entity-2="ent0035" data-link-type="dependency" data-source-line="110" id="lnk67">
      <path d="M169.43,621.6042 C169.43,577.3342 169.43,515.3942 169.43,515.3942 C169.43,515.3942 278.84,515.3942 348.04,515.3942" fill="none" id="User-to-UC_StarBlog" style="stroke:#4CAF50;stroke-width:2.5;" />
      <polygon fill="#4CAF50" points="354.04,515.3942,345.04,511.3942,349.04,515.3942,345.04,519.3942,354.04,515.3942" style="stroke:#4CAF50;stroke-width:2.5;" />
    </g>
    <g class="link" data-entity-1="ent0003" data-entity-2="ent0039" data-link-type="dependency" data-source-line="111" id="lnk68">
      <path d="M165.43,708.8742 C165.43,724.9742 165.43,739.3942 165.43,739.3942 C165.43,739.3942 297.97,739.3942 364.27,739.3942" fill="none" id="User-to-UC_RegisterContest" style="stroke:#4CAF50;stroke-width:2.5;" />
      <polygon fill="#4CAF50" points="370.27,739.3942,361.27,735.3942,365.27,739.3942,361.27,743.3942,370.27,739.3942" style="stroke:#4CAF50;stroke-width:2.5;" />
    </g>
    <g class="link" data-entity-1="ent0003" data-entity-2="ent0041" data-link-type="dependency" data-source-line="112" id="lnk69">
      <path d="M175.79,692.7642 C234.84,692.7642 367.43,692.7642 367.43,692.7642 C367.43,692.7642 367.43,769.2142 367.43,791.7542" fill="none" id="User-to-UC_ViewRanking" style="stroke:#4CAF50;stroke-width:2.5;" />
      <polygon fill="#4CAF50" points="367.43,797.7542,371.43,788.7542,367.43,792.7542,363.43,788.7542,367.43,797.7542" style="stroke:#4CAF50;stroke-width:2.5;" />
    </g>
    <g class="link" data-entity-1="ent0003" data-entity-2="ent0043" data-link-type="dependency" data-source-line="113" id="lnk70">
      <path d="M132.43,709.1142 C132.43,960.3842 132.43,2209.3942 132.43,2209.3942 C132.43,2209.3942 405.92,2209.3942 519.46,2209.3942" fill="none" id="User-to-UC_AIChat" style="stroke:#4CAF50;stroke-width:2.5;" />
      <polygon fill="#4CAF50" points="525.46,2209.3942,516.46,2205.3942,520.46,2209.3942,516.46,2213.3942,525.46,2209.3942" style="stroke:#4CAF50;stroke-width:2.5;" />
    </g>
    <g class="link" data-entity-1="ent0003" data-entity-2="ent0044" data-link-type="dependency" data-source-line="114" id="lnk71">
      <path d="M143.43,708.8942 C143.43,953.3542 143.43,2145.3942 143.43,2145.3942 C143.43,2145.3942 404.61,2145.3942 517.33,2145.3942" fill="none" id="User-to-UC_AISuggest" style="stroke:#4CAF50;stroke-width:2.5;" />
      <polygon fill="#4CAF50" points="523.33,2145.3942,514.33,2141.3942,518.33,2145.3942,514.33,2149.3942,523.33,2145.3942" style="stroke:#4CAF50;stroke-width:2.5;" />
    </g>
    <g class="link" data-entity-1="ent0004" data-entity-2="ent0022" data-link-type="dependency" data-source-line="117" id="lnk72">
      <path d="M290.74,1527.5542 C343.5,1527.5542 452.86,1527.5542 518.45,1527.5542" fill="none" id="Admin-to-UC_ManageProblem" style="stroke:#F44336;stroke-width:2.5;" />
      <polygon fill="#F44336" points="524.45,1527.5542,515.45,1523.5542,519.45,1527.5542,515.45,1531.5542,524.45,1527.5542" style="stroke:#F44336;stroke-width:2.5;" />
    </g>
    <g class="link" data-entity-1="ent0004" data-entity-2="ent0023" data-link-type="dependency" data-source-line="118" id="lnk73">
      <path d="M290.74,1583.0342 C344.39,1583.0342 456.77,1583.0342 521.73,1583.0342" fill="none" id="Admin-to-UC_ManageTestCase" style="stroke:#F44336;stroke-width:2.5;" />
      <polygon fill="#F44336" points="527.73,1583.0342,518.73,1579.0342,522.73,1583.0342,518.73,1587.0342,527.73,1583.0342" style="stroke:#F44336;stroke-width:2.5;" />
    </g>
    <g class="link" data-entity-1="ent0004" data-entity-2="ent0024" data-link-type="dependency" data-source-line="119" id="lnk74">
      <path d="M275.43,1509.9542 C275.43,1462.8742 275.43,1394.3942 275.43,1394.3942 C275.43,1394.3942 432.67,1394.3942 517.16,1394.3942" fill="none" id="Admin-to-UC_ManageLanguage" style="stroke:#F44336;stroke-width:2.5;" />
      <polygon fill="#F44336" points="523.16,1394.3942,514.16,1390.3942,518.16,1394.3942,514.16,1398.3942,523.16,1394.3942" style="stroke:#F44336;stroke-width:2.5;" />
    </g>
    <g class="link" data-entity-1="ent0004" data-entity-2="ent0025" data-link-type="dependency" data-source-line="120" id="lnk75">
      <path d="M283.43,1509.7942 C283.43,1484.8142 283.43,1458.3942 283.43,1458.3942 C283.43,1458.3942 434.61,1458.3942 517.18,1458.3942" fill="none" id="Admin-to-UC_ManageTag" style="stroke:#F44336;stroke-width:2.5;" />
      <polygon fill="#F44336" points="523.18,1458.3942,514.18,1454.3942,518.18,1458.3942,514.18,1462.3942,523.18,1458.3942" style="stroke:#F44336;stroke-width:2.5;" />
    </g>
    <g class="link" data-entity-1="ent0004" data-entity-2="ent0040" data-link-type="dependency" data-source-line="121" id="lnk76">
      <path d="M290.99,1519.2442 C321.62,1519.2442 366.43,1519.2442 366.43,1519.2442 C366.43,1519.2442 366.43,957.9642 366.43,882.6242" fill="none" id="Admin-to-UC_ManageContest" style="stroke:#F44336;stroke-width:2.5;" />
      <polygon fill="#F44336" points="366.43,876.6242,362.43,885.6242,366.43,881.6242,370.43,885.6242,366.43,876.6242" style="stroke:#F44336;stroke-width:2.5;" />
    </g>
    <g class="link" data-entity-1="ent0004" data-entity-2="ent0036" data-link-type="dependency" data-source-line="122" id="lnk77">
      <path d="M259.43,1509.6942 C259.43,1320.3742 259.43,580.3942 259.43,580.3942 C259.43,580.3942 307.42,580.3942 349.6,580.3942" fill="none" id="Admin-to-UC_ManageBlogTag" style="stroke:#F44336;stroke-width:2.5;" />
      <polygon fill="#F44336" points="355.6,580.3942,346.6,576.3942,350.6,580.3942,346.6,584.3942,355.6,580.3942" style="stroke:#F44336;stroke-width:2.5;" />
    </g>
    <g class="link" data-entity-1="ent0004" data-entity-2="ent0049" data-link-type="dependency" data-source-line="123" id="lnk78">
      <path d="M272.43,1597.1642 C272.43,1658.7142 272.43,1763.3942 272.43,1763.3942 C272.43,1763.3942 453.3,1763.3942 532.13,1763.3942" fill="none" id="Admin-to-UC_ManageUser" style="stroke:#F44336;stroke-width:2.5;" />
      <polygon fill="#F44336" points="538.13,1763.3942,529.13,1759.3942,533.13,1763.3942,529.13,1767.3942,538.13,1763.3942" style="stroke:#F44336;stroke-width:2.5;" />
    </g>
    <g class="link" data-entity-1="ent0004" data-entity-2="ent0050" data-link-type="dependency" data-source-line="124" id="lnk79">
      <path d="M263.43,1597.1142 C263.43,1674.4742 263.43,1827.3942 263.43,1827.3942 C263.43,1827.3942 451.33,1827.3942 532,1827.3942" fill="none" id="Admin-to-UC_ManageRole" style="stroke:#F44336;stroke-width:2.5;" />
      <polygon fill="#F44336" points="538,1827.3942,529,1823.3942,533,1827.3942,529,1831.3942,538,1827.3942" style="stroke:#F44336;stroke-width:2.5;" />
    </g>
    <g class="link" data-entity-1="ent0004" data-entity-2="ent0051" data-link-type="dependency" data-source-line="125" id="lnk80">
      <path d="M254.43,1596.8942 C254.43,1688.1842 254.43,1891.3942 254.43,1891.3942 C254.43,1891.3942 449.95,1891.3942 532.21,1891.3942" fill="none" id="Admin-to-UC_ManagePerm" style="stroke:#F44336;stroke-width:2.5;" />
      <polygon fill="#F44336" points="538.21,1891.3942,529.21,1887.3942,533.21,1891.3942,529.21,1895.3942,538.21,1891.3942" style="stroke:#F44336;stroke-width:2.5;" />
    </g>
    <g class="link" data-entity-1="ent0004" data-entity-2="ent0052" data-link-type="dependency" data-source-line="126" id="lnk81">
      <path d="M281.43,1596.8042 C281.43,1641.1242 281.43,1703.4642 281.43,1703.4642 C281.43,1703.4642 437.49,1703.4642 519.78,1703.4642" fill="none" id="Admin-to-UC_ManageSubmission" style="stroke:#F44336;stroke-width:2.5;" />
      <polygon fill="#F44336" points="525.78,1703.4642,516.78,1699.4642,520.78,1703.4642,516.78,1707.4642,525.78,1703.4642" style="stroke:#F44336;stroke-width:2.5;" />
    </g>
    <g class="link" data-entity-1="ent0004" data-entity-2="ent0047" data-link-type="dependency" data-source-line="127" id="lnk82">
      <path d="M245.43,1597.1442 C245.43,1717.7842 245.43,2046.3342 245.43,2046.3342 C245.43,2046.3342 429.24,2046.3342 519.69,2046.3342" fill="none" id="Admin-to-UC_ManualMod" style="stroke:#F44336;stroke-width:2.5;" />
      <polygon fill="#F44336" points="525.69,2046.3342,516.69,2042.3342,520.69,2046.3342,516.69,2050.3342,525.69,2046.3342" style="stroke:#F44336;stroke-width:2.5;" />
    </g>
    <g class="link" data-entity-1="ent0005" data-entity-2="ent0047" data-link-type="dependency" data-source-line="130" id="lnk83">
      <path d="M419.43,2284.6842 C419.43,2207.3442 419.43,2054.4642 419.43,2054.4642 C419.43,2054.4642 474.75,2054.4642 519.78,2054.4642" fill="none" id="Moderator-to-UC_ManualMod" style="stroke:#FF9800;stroke-width:2.5;" />
      <polygon fill="#FF9800" points="525.78,2054.4642,516.78,2050.4642,520.78,2054.4642,516.78,2058.4642,525.78,2054.4642" style="stroke:#FF9800;stroke-width:2.5;" />
    </g>
    <g class="link" data-entity-1="ent0005" data-entity-2="ent0046" data-link-type="dependency" data-source-line="131" id="lnk84">
      <path d="M405.43,2284.8242 C405.43,2193.9442 405.43,1992.4942 405.43,1992.4942 C405.43,1992.4942 474,1992.4942 523.52,1992.4942" fill="none" id="Moderator-to-UC_AutoMod" style="stroke:#FF9800;stroke-width:2.5;" />
      <polygon fill="#FF9800" points="529.52,1992.4942,520.52,1988.4942,524.52,1992.4942,520.52,1996.4942,529.52,1992.4942" style="stroke:#FF9800;stroke-width:2.5;" />
    </g>
    <g class="link" data-entity-1="ent0006" data-entity-2="ent0030" data-link-type="dependency" data-source-line="134" id="lnk85">
      <path d="M542.33,2314.3642 C529.93,2314.3642 518.43,2314.3642 518.43,2314.3642 C518.43,2314.3642 518.43,287.6142 518.43,172.4842" fill="none" id="GoJudge-to-UC_ExecuteJudge" style="stroke:#9C27B0;stroke-width:2.5;" />
      <polygon fill="#9C27B0" points="518.43,166.4842,514.43,175.4842,518.43,171.4842,522.43,175.4842,518.43,166.4842" style="stroke:#9C27B0;stroke-width:2.5;" />
    </g>
    <g class="link" data-entity-1="ent0007" data-entity-2="ent0046" data-link-type="dependency" data-source-line="135" id="lnk86">
      <path d="M724.43,2111.2442 C724.43,2059.5342 724.43,1986.3942 724.43,1986.3942 C724.43,1986.3942 672.21,1986.3942 627.87,1986.3942" fill="none" id="AliyunMod-to-UC_AutoMod" style="stroke:#00BCD4;stroke-width:2.5;" />
      <polygon fill="#00BCD4" points="621.87,1986.3942,630.87,1990.3942,626.87,1986.3942,630.87,1982.3942,621.87,1986.3942" style="stroke:#00BCD4;stroke-width:2.5;" />
    </g>
    <g class="link" data-entity-1="ent0027" data-entity-2="ent0030" data-link-type="dependency" data-source-line="138" id="lnk87">
      <path d="M437.33,93.3742 C486.33,93.3742 573.43,93.3742 573.43,93.3742 C573.43,93.3742 573.43,121.3842 573.43,141.3042" fill="none" id="UC_SubmitCode-to-UC_ExecuteJudge" style="stroke:#795548;stroke-width:2.0;stroke-dasharray:7,7;" />
      <polygon fill="#795548" points="573.43,147.3042,577.43,138.3042,573.43,142.3042,569.43,138.3042,573.43,147.3042" style="stroke:#795548;stroke-width:2.0;" />
      <text fill="#000000" font-family="sans-serif" font-size="13" lengthAdjust="spacing" textLength="53.3135" x="478.34" y="104.5847">«include»</text>
    </g>
    <g class="link" data-entity-1="ent0052" data-entity-2="ent0029" data-link-type="dependency" data-source-line="139" id="lnk88">
      <path d="M525.93,1695.3342 C505.22,1695.3342 485.43,1695.3342 485.43,1695.3342 C485.43,1695.3342 485.43,161.3942 485.43,161.3942 C485.43,161.3942 476.82,161.3942 460.03,161.3942" fill="none" id="UC_ManageSubmission-to-UC_ViewResult" style="stroke:#607D8B;stroke-width:2.0;stroke-dasharray:7,7;" />
      <polygon fill="#607D8B" points="454.03,161.3942,463.03,165.3942,459.03,161.3942,463.03,157.3942,454.03,161.3942" style="stroke:#607D8B;stroke-width:2.0;" />
      <text fill="#000000" font-family="sans-serif" font-size="13" lengthAdjust="spacing" textLength="51.772" x="433.43" y="944.1247">«extend»</text>
    </g>
    <g class="link" data-entity-1="ent0033" data-entity-2="ent0046" data-link-type="dependency" data-source-line="140" id="lnk89">
      <path d="M455.54,385.3942 C464.18,385.3942 470.43,385.3942 470.43,385.3942 C470.43,385.3942 470.43,1986.3942 470.43,1986.3942 C470.43,1986.3942 491.17,1986.3942 517.29,1986.3942" fill="none" id="UC_PublishBlog-to-UC_AutoMod" style="stroke:#795548;stroke-width:2.0;stroke-dasharray:7,7;" />
      <polygon fill="#795548" points="523.29,1986.3942,514.29,1982.3942,518.29,1986.3942,514.29,1990.3942,523.29,1986.3942" style="stroke:#795548;stroke-width:2.0;" />
      <text fill="#000000" font-family="sans-serif" font-size="13" lengthAdjust="spacing" textLength="53.3135" x="416.43" y="1216.0947">«include»</text>
    </g>
    <g class="link" data-entity-1="ent0034" data-entity-2="ent0046" data-link-type="dependency" data-source-line="141" id="lnk90">
      <path d="M439.2,450.3942 C473.27,450.3942 520.43,450.3942 520.43,450.3942 C520.43,450.3942 520.43,1980.3042 520.43,1980.3042 C520.43,1980.3042 518.11,1980.3042 523.51,1980.3042" fill="none" id="UC_Comment-to-UC_AutoMod" style="stroke:#795548;stroke-width:2.0;stroke-dasharray:7,7;" />
      <polygon fill="#795548" points="529.51,1980.3042,520.51,1976.3042,524.51,1980.3042,520.51,1984.3042,529.51,1980.3042" style="stroke:#795548;stroke-width:2.0;" />
      <text fill="#000000" font-family="sans-serif" font-size="13" lengthAdjust="spacing" textLength="53.3135" x="466.43" y="1190.4847">«include»</text>
    </g>
    <g class="link" data-entity-1="ent0027" data-entity-2="ent0018" data-link-type="dependency" data-source-line="142" id="lnk91">
      <path d="M437.46,101.4142 C465.16,101.4142 500.43,101.4142 500.43,101.4142 C500.43,101.4142 500.43,1107.3942 500.43,1107.3942 C500.43,1107.3942 507.03,1107.3942 521.7,1107.3942" fill="none" id="UC_SubmitCode-to-UC_Token" style="stroke:#795548;stroke-width:2.0;stroke-dasharray:7,7;" />
      <polygon fill="#795548" points="527.7,1107.3942,518.7,1103.3942,522.7,1107.3942,518.7,1111.3942,527.7,1107.3942" style="stroke:#795548;stroke-width:2.0;" />
      <text fill="#000000" font-family="sans-serif" font-size="13" lengthAdjust="spacing" textLength="53.3135" x="501.43" y="597.7647">«include»</text>
    </g>
    <g class="link" data-entity-1="ent0039" data-entity-2="ent0018" data-link-type="dependency" data-source-line="143" id="lnk92">
      <path d="M439.29,739.3942 C477.38,739.3942 533.43,739.3942 533.43,739.3942 C533.43,739.3942 533.43,1047.4742 533.43,1095.3142" fill="none" id="UC_RegisterContest-to-UC_Token" style="stroke:#795548;stroke-width:2.0;stroke-dasharray:7,7;" />
      <polygon fill="#795548" points="533.43,1101.3142,537.43,1092.3142,533.43,1096.3142,529.43,1092.3142,533.43,1101.3142" style="stroke:#795548;stroke-width:2.0;" />
      <text fill="#000000" font-family="sans-serif" font-size="13" lengthAdjust="spacing" textLength="53.3135" x="479.43" y="884.4947">«include»</text>
    </g>
  </g>
  <line x1="169.5" y1="1831" x2="199.5" y2="1831" stroke="#2196F3" stroke-width="3" />
  <text x="205.5" y="1835" fill="#333" font-family="sans-serif" font-size="10">访客</text>
  <line x1="319.5" y1="1831" x2="349.5" y2="1831" stroke="#4CAF50" stroke-width="3" />
  <text x="355.5" y="1835" fill="#333" font-family="sans-serif" font-size="10">注册用户</text>
  <line x1="469.5" y1="1831" x2="499.5" y2="1831" stroke="#F44336" stroke-width="3" />
  <text x="505.5" y="1835" fill="#333" font-family="sans-serif" font-size="10">管理员</text>
  <line x1="619.5" y1="1831" x2="649.5" y2="1831" stroke="#FF9800" stroke-width="3" />
  <text x="655.5" y="1835" fill="#333" font-family="sans-serif" font-size="10">审核人员</text>
  <line x1="769.5" y1="1831" x2="799.5" y2="1831" stroke="#9C27B0" stroke-width="3" />
  <text x="805.5" y="1835" fill="#333" font-family="sans-serif" font-size="10">Go-Judge</text>
  <line x1="919.5" y1="1831" x2="949.5" y2="1831" stroke="#00BCD4" stroke-width="3" />
  <text x="955.5" y="1835" fill="#333" font-family="sans-serif" font-size="10">阿里云审核</text>
  <line x1="1069.5" y1="1831" x2="1099.5" y2="1831" stroke="#795548" stroke-width="3" />
  <text x="1105.5" y="1835" fill="#333" font-family="sans-serif" font-size="10">&lt;&lt;include&gt;&gt;</text>
  <line x1="1219.5" y1="1831" x2="1249.5" y2="1831" stroke="#607D8B" stroke-width="3" />
  <text x="1255.5" y="1835" fill="#333" font-family="sans-serif" font-size="10">&lt;&lt;extend&gt;&gt;</text>
  <line x1="1369.5" y1="1831" x2="1399.5" y2="1831" stroke="#333333" stroke-width="3" />
  <text x="1405.5" y="1835" fill="#333" font-family="sans-serif" font-size="10">角色继承</text>
</svg>